<svg width="435" height="104" viewBox="0 0 435 104" fill="none" xmlns="http://www.w3.org/2000/svg">
<path d="M37.4545 64.8182H51.2727L61 77.5L65.5909 83.1364L81.0909 103.364H66.7273L56.3636 89.8636L52.8182 84.9545L37.4545 64.8182ZM84.0909 48.4545C84.0909 58.3939 82.2727 66.9394 78.6364 74.0909C75 81.2121 70.0152 86.697 63.6818 90.5455C57.3788 94.3636 50.2121 96.2727 42.1818 96.2727C34.1212 96.2727 26.9242 94.3636 20.5909 90.5455C14.2879 86.697 9.31818 81.197 5.68182 74.0455C2.04545 66.8939 0.227273 58.3636 0.227273 48.4545C0.227273 38.5151 2.04545 29.9848 5.68182 22.8636C9.31818 15.7121 14.2879 10.2273 20.5909 6.40909C26.9242 2.5606 34.1212 0.63636 42.1818 0.63636C50.2121 0.63636 57.3788 2.5606 63.6818 6.40909C70.0152 10.2273 75 15.7121 78.6364 22.8636C82.2727 29.9848 84.0909 38.5151 84.0909 48.4545ZM70.1818 48.4545C70.1818 40.8788 68.9545 34.5 66.5 29.3182C64.0758 24.1061 60.7424 20.1667 56.5 17.5C52.2879 14.803 47.5152 13.4545 42.1818 13.4545C36.8182 13.4545 32.0303 14.803 27.8182 17.5C23.6061 20.1667 20.2727 24.1061 17.8182 29.3182C15.3939 34.5 14.1818 40.8788 14.1818 48.4545C14.1818 56.0303 15.3939 62.4242 17.8182 67.6364C20.2727 72.8182 23.6061 76.7576 27.8182 79.4545C32.0303 82.1212 36.8182 83.4545 42.1818 83.4545C47.5152 83.4545 52.2879 82.1212 56.5 79.4545C60.7424 76.7576 64.0758 72.8182 66.5 67.6364C68.9545 62.4242 70.1818 56.0303 70.1818 48.4545ZM144.739 66.0455V25.1818H158.375V95H145.011V82.9091H144.284C142.678 86.6364 140.102 89.7424 136.557 92.2273C133.042 94.6818 128.663 95.9091 123.42 95.9091C118.936 95.9091 114.966 94.9242 111.511 92.9545C108.087 90.9545 105.39 88 103.42 84.0909C101.481 80.1818 100.511 75.3485 100.511 69.5909V25.1818H114.102V67.9545C114.102 72.7121 115.42 76.5 118.057 79.3182C120.693 82.1364 124.117 83.5455 128.33 83.5455C130.875 83.5455 133.405 82.9091 135.92 81.6364C138.466 80.3636 140.572 78.4394 142.239 75.8636C143.936 73.2879 144.769 70.0152 144.739 66.0455ZM206.727 96.4091C199.848 96.4091 193.924 94.9394 188.955 92C184.015 89.0303 180.197 84.8636 177.5 79.5C174.833 74.1061 173.5 67.7879 173.5 60.5455C173.5 53.3939 174.833 47.0909 177.5 41.6364C180.197 36.1818 183.955 31.9242 188.773 28.8636C193.621 25.803 199.288 24.2727 205.773 24.2727C209.712 24.2727 213.53 24.9242 217.227 26.2273C220.924 27.5303 224.242 29.5758 227.182 32.3636C230.121 35.1515 232.439 38.7727 234.136 43.2273C235.833 47.6515 236.682 53.0303 236.682 59.3636V64.1818H181.182V54H223.364C223.364 50.4242 222.636 47.2576 221.182 44.5C219.727 41.7121 217.682 39.5151 215.045 37.9091C212.439 36.303 209.379 35.5 205.864 35.5C202.045 35.5 198.712 36.4394 195.864 38.3182C193.045 40.1667 190.864 42.5909 189.318 45.5909C187.803 48.5606 187.045 51.7879 187.045 55.2727V63.2273C187.045 67.8939 187.864 71.8636 189.5 75.1364C191.167 78.4091 193.485 80.9091 196.455 82.6364C199.424 84.3333 202.894 85.1818 206.864 85.1818C209.439 85.1818 211.788 84.8182 213.909 84.0909C216.03 83.3333 217.864 82.2121 219.409 80.7273C220.955 79.2424 222.136 77.4091 222.955 75.2273L235.818 77.5455C234.788 81.3333 232.939 84.6515 230.273 87.5C227.636 90.3182 224.318 92.5152 220.318 94.0909C216.348 95.6364 211.818 96.4091 206.727 96.4091ZM330.17 32.1818H315.989C315.443 29.1515 314.428 26.4848 312.943 24.1818C311.458 21.8788 309.64 19.9242 307.489 18.3182C305.337 16.7121 302.928 15.5 300.261 14.6818C297.625 13.8636 294.822 13.4545 291.852 13.4545C286.489 13.4545 281.686 14.803 277.443 17.5C273.231 20.197 269.898 24.1515 267.443 29.3636C265.019 34.5758 263.807 40.9394 263.807 48.4545C263.807 56.0303 265.019 62.4242 267.443 67.6364C269.898 72.8485 273.246 76.7879 277.489 79.4545C281.731 82.1212 286.504 83.4545 291.807 83.4545C294.746 83.4545 297.534 83.0606 300.17 82.2727C302.837 81.4545 305.246 80.2576 307.398 78.6818C309.549 77.1061 311.367 75.1818 312.852 72.9091C314.367 70.6061 315.413 67.9697 315.989 65L330.17 65.0455C329.413 69.6212 327.943 73.8333 325.761 77.6818C323.61 81.5 320.837 84.803 317.443 87.5909C314.08 90.3485 310.231 92.4848 305.898 94C301.564 95.5152 296.837 96.2727 291.716 96.2727C283.655 96.2727 276.473 94.3636 270.17 90.5455C263.867 86.697 258.898 81.197 255.261 74.0455C251.655 66.8939 249.852 58.3636 249.852 48.4545C249.852 38.5151 251.67 29.9848 255.307 22.8636C258.943 15.7121 263.913 10.2273 270.216 6.40909C276.519 2.5606 283.686 0.63636 291.716 0.63636C296.655 0.63636 301.261 1.34848 305.534 2.77273C309.837 4.16666 313.701 6.22727 317.125 8.95454C320.549 11.6515 323.383 14.9545 325.625 18.8636C327.867 22.7424 329.383 27.1818 330.17 32.1818ZM375.977 96.4091C369.098 96.4091 363.174 94.9394 358.205 92C353.265 89.0303 349.447 84.8636 346.75 79.5C344.083 74.1061 342.75 67.7879 342.75 60.5455C342.75 53.3939 344.083 47.0909 346.75 41.6364C349.447 36.1818 353.205 31.9242 358.023 28.8636C362.871 25.803 368.538 24.2727 375.023 24.2727C378.962 24.2727 382.78 24.9242 386.477 26.2273C390.174 27.5303 393.492 29.5758 396.432 32.3636C399.371 35.1515 401.689 38.7727 403.386 43.2273C405.083 47.6515 405.932 53.0303 405.932 59.3636V64.1818H350.432V54H392.614C392.614 50.4242 391.886 47.2576 390.432 44.5C388.977 41.7121 386.932 39.5151 384.295 37.9091C381.689 36.303 378.629 35.5 375.114 35.5C371.295 35.5 367.962 36.4394 365.114 38.3182C362.295 40.1667 360.114 42.5909 358.568 45.5909C357.053 48.5606 356.295 51.7879 356.295 55.2727V63.2273C356.295 67.8939 357.114 71.8636 358.75 75.1364C360.417 78.4091 362.735 80.9091 365.705 82.6364C368.674 84.3333 372.144 85.1818 376.114 85.1818C378.689 85.1818 381.038 84.8182 383.159 84.0909C385.28 83.3333 387.114 82.2121 388.659 80.7273C390.205 79.2424 391.386 77.4091 392.205 75.2273L405.068 77.5455C404.038 81.3333 402.189 84.6515 399.523 87.5C396.886 90.3182 393.568 92.5152 389.568 94.0909C385.598 95.6364 381.068 96.4091 375.977 96.4091ZM434.602 1.90909V95H421.011V1.90909H434.602Z" fill="white"/>
</svg>
